{"title":"Ravana - The Great Warrior (2009) @ mastitorrents","uid":5203357,"size":829774881,"categoryP":"video","categoryS":"movies","magnet":"?xt=urn:btih:adf82076a64e69c52c9c03dbdda5a0e4b8b346f5&amp;dn=Ravana+-+The+Great+Warrior+%282009%29+%40+mastitorrents&amp;tr=udp%3A%2F%2Ftracker.openbittorrent.com%3A80&amp;tr=udp%3A%2F%2Fopen.demonii.com%3A1337&amp;tr=udp%3A%2F%2Ftracker.coppersurfer.tk%3A6969&amp;tr=udp%3A%2F%2Fexodus.desync.com%3A6969","seeders":0,"leechers":0,"uploader":"PKJMKJ","files":-1,"time":1260270230,"description":"For more Details visit\nmastitorrents and\n\n\nVirtual Reality\n\nPRESENTS\n\nThe Great Warrior (2009) \n\nCAST/CREW\n\nProducer: Sandeep Agarwal\nDirector: Ashtam\nRelease: 2009\nLanguage: Hindi\n\nPLOT\n\nDasahanan wants to be a king in heaven, Earth and the netherworld &amp;\nhe also wants everybody to worship him as a God, Man &amp; Demon.\nDashanan is very intelligent, brave and also Devotee of Lord Shiva.\nAfter returning to Ayodhya from Mithila with his new bride Sita,\nRam is banished to the forest for fourteen years by his stepmother\nso that his half-brother can rule the kingdom. During their\nforest exile, Ram's wife is abducted by demon King of Lanka Ravan.\n\nFILE INFO\n\nFormat : AVI\nFormat/Info : Audio Video Interleave\nFile size : 772 MiB\nDuration : 1h 18mn\nOveral bit rate : 1379 Kbps\nWriting application : AVI-Mux GUI 1.17.7, Aug 8 2006 20:59:17\n\nVideo\nFormat : MPEG-4 Visual\nFormat profile : Streaming Video@L1\nFormat settings, BVOP : Yes\nFormat settings, QPel : Yes\nFormat settings, GMC : 3 warppoints\nFormat settings, Matrix : Default\nCodec ID : XVID\nCodec ID/Hint : XviD\nDuration : 1h 18mn\nBit rate : 1245 Kbps\nWidth : 672 pixels\nHeight : 384 pixels\nDisplay aspect ratio : 16/9\nFrame rate : 29.970 fps\nResolution : 8 bits\nColorimetry : 4:2:0\nScan type : Progressive\nBits/(Pixel*Frame) : 0.161\nStream size : 697 MiB\nWriting library : XviD 50\n\nAudio\nFormat : MPEG Audio\nFormat version : Version 1\nFormat profile : Layer 3\nCodec ID : 55\nCodec ID/Hint : MP3\nBit rate mode : Constant\nBit rate : 32.0 Kbps\nChannel(s) : 2 channels\nSampling rate : 48.0 KHz\nResolution : 16 bits\nStream size : 69.5 MiB\n\nSubtitles : English\n\nCLICK HERE FOR SAMPLE\n\nCREDITS TO VIRTUAL REALITY","torrent":{"xt":"urn:btih:adf82076a64e69c52c9c03dbdda5a0e4b8b346f5","amp;dn":"Ravana+-+The+Great+Warrior+%282009%29+%40+mastitorrents","amp;tr":["udp%3A%2F%2Ftracker.openbittorrent.com%3A80","udp%3A%2F%2Fopen.demonii.com%3A1337","udp%3A%2F%2Ftracker.coppersurfer.tk%3A6969","udp%3A%2F%2Fexodus.desync.com%3A6969"],"infoHash":"adf82076a64e69c52c9c03dbdda5a0e4b8b346f5","infoHashBuffer":{"type":"Buffer","data":[173,248,32,118,166,78,105,197,44,156,3,219,221,165,160,228,184,179,70,245]},"announce":[],"urlList":[]}}